<?xml version="1.0" encoding="UTF-8"?>
<svg version="1.1" xmlns="http://www.w3.org/2000/svg" width="512" height="512">
<path d="M0 0 C1.23503265 -0.0127597 2.47006531 -0.02551941 3.74252319 -0.03866577 C5.07785891 -0.04172375 6.41319674 -0.04395134 7.74853516 -0.04541016 C9.13327163 -0.05184609 10.51800678 -0.05857503 11.90274048 -0.06558228 C14.79928742 -0.07752495 17.69571536 -0.08126619 20.59228516 -0.08007812 C24.28646744 -0.07987503 27.97987963 -0.10717963 31.67387962 -0.14162254 C34.53253621 -0.16396381 37.3910095 -0.16791349 40.24974442 -0.16685867 C42.26814736 -0.17033626 44.2864931 -0.19195095 46.30477905 -0.21395874 C54.53738697 -0.17315002 60.27233662 0.50202023 66.68603516 6.03662109 C67.35505859 6.87386719 67.35505859 6.87386719 68.03759766 7.72802734 C68.72982422 8.56140625 68.72982422 8.56140625 69.43603516 9.41162109 C71.99283099 13.32824146 72.91383214 16.95071014 73.07666016 21.59130859 C73.11533203 22.56777344 73.15400391 23.54423828 73.19384766 24.55029297 C73.24025391 26.06139648 73.24025391 26.06139648 73.28759766 27.60302734 C73.32626953 28.62976563 73.36494141 29.65650391 73.40478516 30.71435547 C73.49874663 33.23956999 73.58441305 35.76478326 73.66259766 38.29052734 C74.78537109 38.67724609 75.90814453 39.06396484 77.06494141 39.46240234 C78.57691253 39.9877182 80.08861414 40.51381015 81.60009766 41.04052734 C82.76738403 41.44561523 82.76738403 41.44561523 83.95825195 41.85888672 C88.08236817 43.30984498 92.04598686 44.85904527 95.97509766 46.79052734 C99.35120314 48.62450424 99.35120314 48.62450424 101.63525391 47.65380859 C104.06436545 46.02035979 105.81660422 44.1417563 107.78759766 41.97802734 C114.00054796 35.69412981 119.81318412 32.0892616 128.78759766 31.72802734 C137.7096326 31.71566995 143.57658702 36.74684164 149.59065247 42.71409607 C150.41490219 43.55271683 151.23915192 44.39133759 152.08837891 45.25537109 C152.9577861 46.12569473 153.8271933 46.99601837 154.72294617 47.89271545 C156.55044601 49.72623393 158.37310636 51.56458738 160.19116211 53.4074707 C162.9729256 56.22582672 165.77044187 59.0277688 168.57080078 61.82763672 C170.34844127 63.61510611 172.12516597 65.40348682 173.90087891 67.19287109 C174.73524979 68.02946762 175.56962067 68.86606415 176.42927551 69.72801208 C177.59144844 70.90932457 177.59144844 70.90932457 178.77709961 72.11450195 C179.45690384 72.80192978 180.13670807 73.4893576 180.83711243 74.19761658 C186.12211699 80.256851 187.07166469 85.66711116 186.91650391 93.49755859 C186.15281244 101.89816473 180.66532818 106.65876492 174.64013672 111.99145508 C172.82796792 113.60117164 172.82796792 113.60117164 170.66259766 116.29052734 C170.66259766 120.04048193 172.36140996 123.06824946 173.97509766 126.41552734 C176.55576224 131.92944731 178.67185663 137.54073342 180.66259766 143.29052734 C181.50854492 143.3045459 181.50854492 143.3045459 182.37158203 143.31884766 C184.96941758 143.37310221 187.56555685 143.45663417 190.16259766 143.54052734 C191.04947266 143.55470703 191.93634766 143.56888672 192.85009766 143.58349609 C199.90999046 143.84305098 205.27762652 145.36951943 210.68603516 150.03662109 C211.13205078 150.59478516 211.57806641 151.15294922 212.03759766 151.72802734 C212.49908203 152.28361328 212.96056641 152.83919922 213.43603516 153.41162109 C216.27534057 157.76100296 216.91805827 161.5486311 216.953125 166.69799805 C216.9658847 167.97314774 216.97864441 169.24829742 216.99179077 170.56208801 C216.99484893 171.94682665 216.99707642 173.33156734 216.99853516 174.71630859 C217.00496857 176.14731477 217.01169733 177.57831965 217.01870728 179.00932312 C217.03066363 182.00600226 217.03438988 185.00256628 217.03320312 187.99926758 C217.0330002 191.82238379 217.0602813 195.64475445 217.09474754 199.46769428 C217.11708595 202.42328724 217.12103854 205.37870286 217.11998367 208.33437157 C217.12233001 209.74286654 217.13109864 211.15136712 217.14664841 212.55977821 C217.23683678 221.57338833 217.00904381 228.25370607 210.91650391 235.31396484 C210.35833984 235.75998047 209.80017578 236.20599609 209.22509766 236.66552734 C208.66951172 237.12701172 208.11392578 237.58849609 207.54150391 238.06396484 C203.65581568 240.60056797 200.19709072 241.54248431 195.58056641 241.48583984 C194.18354492 241.47617187 194.18354492 241.47617187 192.75830078 241.46630859 C191.31874023 241.44117188 191.31874023 241.44117188 189.85009766 241.41552734 C188.87105469 241.40650391 187.89201172 241.39748047 186.88330078 241.38818359 C184.47614704 241.36469917 182.06950022 241.33185575 179.66259766 241.29052734 C179.5037207 241.99153564 179.34484375 242.69254395 179.18115234 243.41479492 C177.64185351 250.03960077 175.18611939 255.65208369 171.82446289 261.51757812 C169.94675503 264.83988155 169.94675503 264.83988155 170.26025391 268.50146484 C171.70376833 270.34305149 173.18382941 271.90111036 174.91259766 273.47802734 C181.23848815 279.60540663 185.75715315 286.01936122 185.97509766 294.97802734 C185.88177425 302.7238699 183.77804287 307.35035703 178.35009766 312.79052734 C177.76542725 313.33467285 177.18075684 313.87881836 176.57836914 314.43945312 C174.85191235 316.10760598 173.31871518 317.81001836 171.77587891 319.64599609 C166.76044086 325.42449389 161.37374426 330.83888284 155.98339844 336.26489258 C154.76504747 337.49484222 153.55119733 338.72926589 152.34179688 339.96801758 C150.57308769 341.77947574 148.7914195 343.57723944 147.00634766 345.37255859 C146.47384399 345.92257034 145.94134033 346.47258209 145.3927002 347.03926086 C140.2905311 352.11258254 135.09587262 354.71813369 127.72509766 354.72802734 C118.18424201 354.38517132 113.82249625 350.66946886 107.47509766 343.97802734 C106.97558594 343.41374023 106.47607422 342.84945313 105.96142578 342.26806641 C104.35196991 340.45584513 104.35196991 340.45584513 101.66259766 338.29052734 C99.18758906 338.05750617 99.18758906 338.05750617 96.66259766 339.29052734 C95.77495728 339.65126343 95.77495728 339.65126343 94.86938477 340.01928711 C92.80222853 340.88384526 90.76384477 341.79857067 88.72509766 342.72802734 C84.0908378 344.82664175 79.53048972 346.77454844 74.66259766 348.29052734 C74.64841797 349.32951172 74.63423828 350.36849609 74.61962891 351.43896484 C74.27189069 363.8679944 71.80167689 371.83137751 62.62744141 380.69677734 C58.6747152 383.9029648 55.72830534 384.54477618 50.64404297 384.58105469 C49.42888 384.59381439 48.21371704 384.6065741 46.96173096 384.61972046 C45.65129822 384.62194611 44.34086548 384.62417175 42.99072266 384.62646484 C41.62554791 384.63289692 40.26037453 384.63962559 38.89520264 384.64663696 C36.03378101 384.65860327 33.17248003 384.66231866 30.31103516 384.66113281 C26.66163029 384.6609301 23.01300838 384.68818411 19.3637886 384.72267723 C16.54287231 384.74502764 13.72214167 384.74896783 10.90114594 384.74791336 C8.90712201 384.75139261 6.91315605 384.77301105 4.91925049 384.79501343 C-3.43151504 384.75316165 -9.00247754 383.94260559 -15.54443359 378.43115234 C-23.57507006 368.97414979 -23.91911609 360.17562642 -24.33740234 348.29052734 C-25.93068359 347.71044922 -25.93068359 347.71044922 -27.55615234 347.11865234 C-40.42974548 342.38672058 -40.42974548 342.38672058 -45.14990234 339.91552734 C-48.18655243 338.06343362 -48.18655243 338.06343362 -51.33740234 338.29052734 C-52.97070544 339.82037292 -52.97070544 339.82037292 -54.52490234 341.85302734 C-60.20511168 348.59977387 -65.50081945 354.43297688 -74.57958984 355.57177734 C-82.77451395 356.08236452 -88.89236923 353.22286674 -95.09179688 347.94604492 C-97.97194295 345.18315221 -100.7596899 342.35462896 -103.52490234 339.47802734 C-104.47885185 338.50751565 -105.4339259 337.538108 -106.39013672 336.56982422 C-111.03271508 331.84464984 -115.51520539 327.01426225 -119.83325195 321.9909668 C-121.93338777 319.61676683 -124.21783626 317.46188366 -126.52490234 315.29052734 C-132.49962368 309.30671206 -135.4525716 304.96936395 -135.89990234 296.41552734 C-135.37630198 284.14171881 -127.85029363 277.13252527 -119.33740234 269.29052734 C-121.00170128 264.08959318 -123.01767595 259.06457746 -125.12646484 254.03271484 C-126.97424334 249.51592296 -128.24049063 245.0473272 -129.33740234 240.29052734 C-129.96195313 240.31147461 -130.58650391 240.33242188 -131.22998047 240.35400391 C-134.09895294 240.43788578 -136.96766643 240.48941245 -139.83740234 240.54052734 C-140.81966797 240.57404297 -141.80193359 240.60755859 -142.81396484 240.64208984 C-150.32063312 240.74217875 -155.61766197 239.50041913 -161.36083984 234.54443359 C-161.80685547 233.98626953 -162.25287109 233.42810547 -162.71240234 232.85302734 C-163.17388672 232.29744141 -163.63537109 231.74185547 -164.11083984 231.16943359 C-166.92915522 226.85220527 -167.59255844 223.08651296 -167.62792969 217.97485352 C-167.64068939 216.71972458 -167.6534491 215.46459564 -167.66659546 214.1714325 C-167.66965365 212.80878861 -167.67188112 211.44614263 -167.67333984 210.08349609 C-167.67977349 208.67491014 -167.68650227 207.26632551 -167.69351196 205.85774231 C-167.70546756 202.90814113 -167.70919465 199.9586569 -167.70800781 197.0090332 C-167.7078049 193.24644618 -167.73508536 189.48461677 -167.76955223 185.72220898 C-167.79189353 182.81293864 -167.79584314 179.90384842 -167.79478836 176.99450111 C-167.79713429 175.60833441 -167.80590059 174.22216198 -167.82145309 172.83608055 C-167.91264323 163.86840607 -167.60206416 157.33412283 -161.62646484 150.26708984 C-161.07732422 149.82107422 -160.52818359 149.37505859 -159.96240234 148.91552734 C-159.14642578 148.22330078 -159.14642578 148.22330078 -158.31396484 147.51708984 C-152.43078996 143.8662659 -146.64936894 144.04151798 -139.96240234 144.16552734 C-139.03556641 144.17455078 -138.10873047 144.18357422 -137.15380859 144.19287109 C-134.88140158 144.21629797 -132.60954054 144.24909986 -130.33740234 144.29052734 C-130.18501099 143.46065308 -130.18501099 143.46065308 -130.02954102 142.61401367 C-128.74377363 136.19741567 -126.47596941 130.75378305 -123.64013672 124.89013672 C-121.8225012 121.2134457 -121.8225012 121.2134457 -121.60449219 117.22216797 C-122.77455053 114.13838994 -125.2664433 112.27790971 -127.64990234 110.10302734 C-133.63995402 104.3505006 -137.36989154 99.18986027 -137.77490234 90.72802734 C-136.8740179 75.41299185 -122.08997957 64.78216652 -111.96313477 54.56616211 C-110.58404509 53.1704274 -109.21035507 51.76933735 -107.84204102 50.36303711 C-90.5162557 32.56166633 -90.5162557 32.56166633 -78.83740234 31.66552734 C-68.51474199 32.24626773 -62.23632113 37.83519974 -55.46630859 45.18115234 C-53.43687019 47.5035309 -53.43687019 47.5035309 -50.33740234 48.29052734 C-47.55802372 47.29159634 -44.90844305 46.22995707 -42.21240234 45.04052734 C-36.33114368 42.48848117 -30.45217439 40.22606085 -24.33740234 38.29052734 C-24.32338379 37.35370117 -24.32338379 37.35370117 -24.30908203 36.39794922 C-24.25491297 33.52805105 -24.1713604 30.65970249 -24.08740234 27.79052734 C-24.07322266 26.80826172 -24.05904297 25.82599609 -24.04443359 24.81396484 C-23.79817484 17.42620212 -22.45078532 11.97256475 -17.62646484 6.26708984 C-16.80275391 5.59806641 -16.80275391 5.59806641 -15.96240234 4.91552734 C-15.41841797 4.45404297 -14.87443359 3.99255859 -14.31396484 3.51708984 C-9.77381672 0.69968567 -5.2625149 0.03708791 0 0 Z M-4.33740234 18.29052734 C-6.64888182 21.4268483 -6.61323654 24.45082377 -6.68115234 28.26318359 C-6.71080078 29.40980469 -6.74044922 30.55642578 -6.77099609 31.73779297 C-6.81533865 34.15185415 -6.85960926 36.56591666 -6.90380859 38.97998047 C-6.93345703 40.1253125 -6.96310547 41.27064453 -6.99365234 42.45068359 C-7.01234375 43.49877197 -7.03103516 44.54686035 -7.05029297 45.62670898 C-7.33740234 48.29052734 -7.33740234 48.29052734 -9.33740234 51.29052734 C-11.62133789 52.34619141 -11.62133789 52.34619141 -14.47412109 53.30615234 C-16.04250732 53.84780029 -16.04250732 53.84780029 -17.64257812 54.40039062 C-18.75874512 54.77663574 -19.87491211 55.15288086 -21.02490234 55.54052734 C-29.7818571 58.56175778 -38.08216375 61.80732382 -46.25146484 66.17333984 C-50.10404612 67.5680718 -52.39573954 67.31278102 -56.33740234 66.29052734 C-58.45458984 64.97802734 -58.45458984 64.97802734 -60.21240234 63.29052734 C-60.87626953 62.66791016 -61.54013672 62.04529297 -62.22412109 61.40380859 C-63.71634495 59.91158474 -65.19707034 58.40781967 -66.66943359 56.89599609 C-67.44673828 56.09806641 -68.22404297 55.30013672 -69.02490234 54.47802734 C-69.73001953 53.72908203 -70.43513672 52.98013672 -71.16162109 52.20849609 C-73.5665028 50.08857344 -75.19533216 48.97106789 -78.33740234 48.29052734 C-83.66847843 50.70687566 -87.59758201 55.19024626 -91.70068359 59.24755859 C-92.49266647 60.02814133 -93.28464935 60.80872406 -94.10063171 61.61296082 C-95.76837386 63.26185202 -97.4332578 64.91363848 -99.09545898 66.56811523 C-101.64451343 69.09767963 -104.21408753 71.60513141 -106.78466797 74.11279297 C-108.40382016 75.7188916 -110.02170309 77.32627104 -111.63818359 78.93505859 C-112.40995438 79.68213577 -113.18172516 80.42921295 -113.97688293 81.19892883 C-118.0767277 85.26104219 -118.0767277 85.26104219 -120.04882812 90.5480957 C-119.1924493 93.84929796 -118.12225313 95.18860031 -115.65380859 97.52490234 C-114.51008789 98.63285156 -114.51008789 98.63285156 -113.34326172 99.76318359 C-112.53695312 100.51470703 -111.73064453 101.26623047 -110.89990234 102.04052734 C-109.31613048 103.55433338 -107.73401298 105.06987273 -106.15380859 106.58740234 C-105.09335327 107.58271973 -105.09335327 107.58271973 -104.01147461 108.59814453 C-101.4547953 111.1827881 -101.34391653 112.20673521 -101.05224609 115.95849609 C-101.11584967 120.44406265 -102.71180783 123.76153991 -104.89990234 127.60302734 C-108.62390955 134.52916388 -111.44478119 141.55895717 -113.98999023 148.99487305 C-114.3881897 150.1389563 -114.3881897 150.1389563 -114.79443359 151.30615234 C-115.02106689 151.97936523 -115.2477002 152.65257812 -115.48120117 153.34619141 C-116.53326676 155.73531326 -117.49824809 157.41781282 -119.33740234 159.29052734 C-121.89355469 159.8046875 -121.89355469 159.8046875 -124.92333984 159.82958984 C-126.01904297 159.85279297 -127.11474609 159.87599609 -128.24365234 159.89990234 C-129.38833984 159.90505859 -130.53302734 159.91021484 -131.71240234 159.91552734 C-133.97032352 159.94112736 -136.22817161 159.97469232 -138.48583984 160.01708984 C-139.4879248 160.02305176 -140.49000977 160.02901367 -141.52246094 160.03515625 C-144.59258695 160.31367766 -146.65773561 160.75407697 -149.33740234 162.29052734 C-151.04530253 165.72988336 -151.59166555 168.55266999 -151.61206055 172.36865234 C-151.62159256 173.35317383 -151.63112457 174.33769531 -151.64094543 175.35205078 C-151.64003403 176.40424805 -151.63912262 177.45644531 -151.63818359 178.54052734 C-151.64246872 179.63139648 -151.64675385 180.72226563 -151.65116882 181.84619141 C-151.6569038 184.14924425 -151.65741853 186.4523152 -151.65307617 188.75537109 C-151.64991375 192.2778204 -151.67339516 195.79943167 -151.69873047 199.32177734 C-151.70100329 201.56135962 -151.70170704 203.80094415 -151.70068359 206.04052734 C-151.70989334 207.09272461 -151.71910309 208.14492188 -151.72859192 209.22900391 C-151.69258793 214.91978816 -151.57558021 219.05234948 -147.33740234 223.29052734 C-145.3235867 223.3879335 -143.30667907 223.42257297 -141.29052734 223.43115234 C-140.05302734 223.45048828 -138.81552734 223.46982422 -137.54052734 223.48974609 C-134.92088839 223.52339758 -132.30100612 223.54181374 -129.68115234 223.54443359 C-128.43849609 223.56892578 -127.19583984 223.59341797 -125.91552734 223.61865234 C-124.7750293 223.62799805 -123.63453125 223.63734375 -122.45947266 223.64697266 C-118.40038969 224.48367446 -116.92620591 226.12245789 -114.33740234 229.29052734 C-113.00146484 232.49755859 -113.00146484 232.49755859 -111.96240234 236.10302734 C-110.21071789 241.85599592 -108.15242659 247.35558462 -105.71240234 252.85302734 C-105.42316895 253.50698486 -105.13393555 254.16094238 -104.8359375 254.8347168 C-103.51342377 257.78625448 -102.1343811 260.67840968 -100.63427734 263.54443359 C-98.81935486 267.38747728 -99.07939909 269.23696131 -100.33740234 273.29052734 C-103.06742027 277.26523429 -106.55169247 280.52333199 -109.98974609 283.88037109 C-110.88822266 284.75822266 -111.78669922 285.63607422 -112.71240234 286.54052734 C-113.56576172 287.35005859 -114.41912109 288.15958984 -115.29833984 288.99365234 C-117.81331677 291.76666893 -117.81331677 291.76666893 -118.33740234 295.29052734 C-115.95048155 300.17137636 -112.26085859 303.62336778 -108.43896484 307.38427734 C-107.76699066 308.05342163 -107.09501648 308.72256592 -106.40267944 309.4119873 C-104.26058755 311.54292684 -102.11165048 313.66680816 -99.96240234 315.79052734 C-98.52444127 317.2184486 -97.08693638 318.64682939 -95.64990234 320.07568359 C-92.42396965 323.28175246 -89.19763596 326.48736757 -85.95423889 329.67578125 C-84.91805468 330.71062575 -83.89729601 331.76129214 -82.89720154 332.83105469 C-80.09671587 335.84360556 -80.09671587 335.84360556 -76.04443359 336.60302734 C-70.74068577 334.72519882 -67.79642196 331.35915462 -64.02490234 327.29052734 C-62.61396797 325.80961877 -61.20129291 324.33036606 -59.78662109 322.85302734 C-59.17133545 322.19431641 -58.5560498 321.53560547 -57.92211914 320.85693359 C-55.8501936 318.80894804 -54.69061733 318.33434115 -51.78662109 317.97412109 C-47.03158379 318.41031364 -43.41175581 320.28715126 -39.14990234 322.35302734 C-31.32153487 326.03602117 -23.45380992 329.23043288 -15.25463867 331.99389648 C-9.54508783 333.97899912 -9.54508783 333.97899912 -7.33740234 337.29052734 C-7.05029297 339.34008789 -7.05029297 339.34008789 -6.99365234 341.67724609 C-6.96400391 342.53382813 -6.93435547 343.39041016 -6.90380859 344.27294922 C-6.88189453 345.165625 -6.85998047 346.05830078 -6.83740234 346.97802734 C-6.94287893 357.93259749 -6.94287893 357.93259749 -2.44458008 367.47607422 C2.1670373 370.16905295 6.40378879 369.92052268 11.65869141 369.92724609 C12.72499283 369.93818802 13.79129425 369.94912994 14.88990784 369.96040344 C17.141644 369.97624878 19.39347659 369.98147072 21.64526367 369.97680664 C25.08561508 369.97802223 28.52172536 370.03781819 31.96142578 370.10107422 C34.1521706 370.10921557 36.34293163 370.11388819 38.53369141 370.11474609 C39.55885361 370.13832687 40.58401581 370.16190765 41.64024353 370.186203 C47.01954876 370.17288474 47.01954876 370.17288474 51.64993286 367.74697876 C55.17054061 363.71884779 56.77053882 360.78905154 56.83837891 355.42333984 C56.86222656 354.45525391 56.88607422 353.48716797 56.91064453 352.48974609 C56.95344509 350.44828891 56.98478686 348.40655776 57.00439453 346.36474609 C57.2123459 339.08161213 57.2123459 339.08161213 59.06103516 335.83349609 C63.14511995 333.41125361 67.48510576 331.98162439 71.97509766 330.47802734 C80.12660832 327.65761134 87.81802639 324.5134334 95.47119141 320.54052734 C99.16073677 319.09541778 101.73226726 318.86100828 105.66259766 319.29052734 C107.70947266 320.43505859 107.70947266 320.43505859 109.41259766 322.10302734 C110.07388672 322.72951172 110.73517578 323.35599609 111.41650391 324.00146484 C113.10602594 325.72330817 114.77719079 327.4572541 116.43994141 329.20458984 C116.92172852 329.70369873 117.40351563 330.20280762 117.89990234 330.71704102 C119.29809767 332.17384756 120.67419373 333.65176596 122.04931641 335.13037109 C124.41670501 337.47078402 124.41670501 337.47078402 127.08015442 337.63186646 C130.30919075 337.20506273 131.307087 336.27370429 133.5949707 333.98925781 C134.32890549 333.26785614 135.06284027 332.54645447 135.8190155 331.80319214 C136.5962648 331.01268463 137.3735141 330.22217712 138.17431641 329.40771484 C139.38846977 328.19717941 139.38846977 328.19717941 140.62715149 326.96218872 C142.33685119 325.25150928 144.04033687 323.53460021 145.73803711 321.81201172 C148.33492935 319.18089555 150.9548561 316.57451124 153.57861328 313.97021484 C155.23695047 312.30497714 156.89389862 310.63835477 158.54931641 308.97021484 C159.3326384 308.19185272 160.11596039 307.4134906 160.92301941 306.61154175 C166.23691041 301.28463244 166.23691041 301.28463244 168.66259766 294.29052734 C166.2413467 289.44170362 162.48285636 285.9202212 158.60009766 282.22802734 C151.33608103 275.31792139 151.33608103 275.31792139 149.66259766 271.29052734 C149.79005374 265.58183656 151.83961354 261.3853166 154.47509766 256.47802734 C155.20706697 255.06411014 155.93624872 253.64874627 156.66259766 252.23193359 C157.01064453 251.55404785 157.35869141 250.87616211 157.71728516 250.17773438 C160.89249238 243.83880053 163.09568216 237.21895391 165.04931641 230.41943359 C165.54543113 228.69725192 166.09584908 226.99077308 166.66259766 225.29052734 C167.89562622 225.26865356 167.89562622 225.26865356 169.15356445 225.24633789 C172.88621088 225.17176402 176.61797224 225.07513223 180.35009766 224.97802734 C181.64367187 224.95546875 182.93724609 224.93291016 184.27001953 224.90966797 C185.5171875 224.87421875 186.76435547 224.83876953 188.04931641 224.80224609 C189.7696106 224.76296997 189.7696106 224.76296997 191.5246582 224.72290039 C194.98208071 224.24650614 196.90854035 223.41199305 199.66259766 221.29052734 C200.66246193 218.29093451 200.79491489 216.28244684 200.80786133 213.14819336 C200.81424118 212.10023087 200.82062103 211.05226837 200.82719421 209.97254944 C200.82830704 208.84127121 200.82941986 207.70999298 200.83056641 206.54443359 C200.83389481 205.38177475 200.83722321 204.21911591 200.84065247 203.02122498 C200.84571822 200.56078487 200.8480609 198.10033789 200.84790039 195.63989258 C200.85008686 191.87162995 200.86824655 188.10366002 200.88720703 184.33544922 C200.89014099 181.94677835 200.89212577 179.55810608 200.89306641 177.16943359 C200.90025192 176.0401796 200.90743744 174.9109256 200.9148407 173.74745178 C200.91176407 172.69633713 200.90868744 171.64522247 200.90551758 170.56225586 C200.90765511 169.17684349 200.90765511 169.17684349 200.90983582 167.76344299 C200.64613065 165.12582168 200.08669927 163.51430941 198.66259766 161.29052734 C195.99892247 159.95868975 193.93525594 160.16366005 190.95556641 160.14990234 C189.81152344 160.13056641 188.66748047 160.11123047 187.48876953 160.09130859 C185.07487327 160.05762029 182.66071194 160.03923804 180.24658203 160.03662109 C171.55815187 159.8512419 171.55815187 159.8512419 167.58056641 157.36083984 C164.99677918 153.22467536 163.37922509 149.011552 161.78759766 144.41552734 C158.93294577 136.47531759 155.73772093 128.98496334 151.81494141 121.51708984 C150.39799886 117.54965072 150.54855811 115.33649523 151.66259766 111.29052734 C153.41259766 108.73583984 153.41259766 108.73583984 155.66259766 106.41552734 C156.46568359 105.56861328 157.26876953 104.72169922 158.09619141 103.84912109 C159.79685639 102.15363318 161.51822651 100.47864493 163.26025391 98.82568359 C164.07365234 98.05095703 164.88705078 97.27623047 165.72509766 96.47802734 C166.85625 95.44742188 166.85625 95.44742188 168.01025391 94.39599609 C169.85075529 92.4180336 169.85075529 92.4180336 169.97892761 89.91143799 C169.57871039 86.59549032 168.59589068 85.59613006 166.25366211 83.25048828 C165.50901199 82.49330505 164.76436188 81.73612183 163.99714661 80.95599365 C163.18162827 80.15373352 162.36610992 79.35147339 161.52587891 78.52490234 C160.69428757 77.69089905 159.86269623 76.85689575 159.00590515 75.99761963 C157.24395147 74.23664566 155.47576874 72.48188558 153.7019043 70.73291016 C150.98736021 68.05263509 148.29757033 65.34924627 145.60986328 62.64208984 C143.89579827 60.93492391 142.18034846 59.22914702 140.46337891 57.52490234 C139.65798172 56.71454529 138.85258453 55.90418823 138.02278137 55.0692749 C136.88216499 53.95241302 136.88216499 53.95241302 135.71850586 52.81298828 C135.054543 52.155224 134.39058014 51.49745972 133.70649719 50.81976318 C131.32183776 49.03557242 129.61250478 48.55529652 126.66259766 48.29052734 C124.67617489 49.32846766 124.67617489 49.32846766 122.97509766 51.10302734 C121.95609375 52.06208984 121.95609375 52.06208984 120.91650391 53.04052734 C117.56804888 56.38317916 114.23913693 59.74358443 110.95947266 63.15380859 C107.37757619 66.48594697 105.97106514 67.33068137 100.97119141 67.17724609 C96.10750973 66.40764065 92.06800361 64.33837324 87.72509766 62.10302734 C80.64679856 58.56597776 73.63039114 55.64535251 66.0065918 53.49487305 C62.75965078 52.4846872 60.88535786 51.56448647 58.72509766 48.90771484 C56.83022669 42.45679382 57.18811659 35.82752713 57.13525391 29.14794922 C57.11333984 28.05675781 57.09142578 26.96556641 57.06884766 25.84130859 C57.06175781 24.84784424 57.05466797 23.85437988 57.04736328 22.83081055 C56.86380418 20.26561401 56.86380418 20.26561401 55.32470703 18.50610352 C52.2599658 16.26471888 49.47303602 16.16137091 45.81152344 16.14526367 C44.82685089 16.13888382 43.84217834 16.13250397 42.82766724 16.12593079 C41.7651474 16.12481796 40.70262756 16.12370514 39.60791016 16.12255859 C38.51421112 16.11923019 37.42051208 16.11590179 36.29367065 16.11247253 C33.97866232 16.10740712 31.66364668 16.10506409 29.34863281 16.10522461 C25.80863386 16.10304032 22.26894761 16.08488635 18.72900391 16.06591797 C16.48030706 16.06298354 14.23160872 16.06099907 11.98291016 16.06005859 C10.92443878 16.05287308 9.86596741 16.04568756 8.77542114 16.0382843 C7.28895584 16.04289925 7.28895584 16.04289925 5.77246094 16.04760742 C4.4703215 16.04546989 4.4703215 16.04546989 3.14187622 16.04328918 C0.32520755 16.3241725 -1.79492418 17.0601709 -4.33740234 18.29052734 Z " fill="#0083FE" transform="translate(231.33740234375,63.70947265625)"/>
<path d="M0 0 C0.80824219 0.62519531 1.61648438 1.25039062 2.44921875 1.89453125 C18.50652831 15.20556448 28.95823501 35.52161636 32 56 C33.7763586 84.08116683 28.44579153 107.39331088 9.8125 129 C-4.55315341 144.4412847 -24.37826293 155.82866915 -45.81396484 157.17700195 C-73.89083034 157.77090834 -97.31361424 152.22524065 -118.39941406 132.57568359 C-134.42165619 116.80271979 -143.88095139 95.27321697 -144.29248047 72.80224609 C-144.45809589 47.03491049 -137.15116612 24.99593147 -118.75 6.25 C-86.37228552 -25.44032953 -35.61187671 -27.91464481 0 0 Z M-111.2734375 23.3984375 C-124.57786405 38.74185662 -128.17251351 57.60699358 -127.21142578 77.37646484 C-125.84998063 94.27033273 -117.28526333 109.59225548 -105 121 C-104.42378906 121.59296875 -103.84757812 122.1859375 -103.25390625 122.796875 C-91.8180981 133.95165195 -75.81460339 140.05284589 -60 141 C-59.34128906 141.05285156 -58.68257813 141.10570312 -58.00390625 141.16015625 C-39.25840056 141.97517824 -21.44922157 134.08708364 -7.3125 122.25 C7.20713549 108.73975093 15.00205612 90.2378124 15.9921875 70.62890625 C16.03585709 50.34438337 8.69570041 32.87793611 -5.25 18.25 C-21.4591356 2.75531666 -39.57165855 -2.72801089 -61.48046875 -2.3046875 C-82.0489253 -1.45512845 -97.58050028 8.95262401 -111.2734375 23.3984375 Z " fill="#0083FE" transform="translate(312,187)"/>
</svg>
