<?xml version="1.0" encoding="UTF-8"?>
<svg version="1.1" xmlns="http://www.w3.org/2000/svg" width="512" height="512">
<path d="M0 0 C25.74274834 20.82026814 42.12829589 48.17880918 46.54394531 81.15673828 C47.09555146 86.50530293 46.98744544 91.86386201 46.7578125 97.23046875 C47.52222656 97.25625 48.28664063 97.28203125 49.07421875 97.30859375 C71.88079478 98.51616216 90.75755747 107.49231806 106.4453125 123.98046875 C120.41101726 140.11972684 127.39151188 159.30898381 127.1953125 180.54296875 C127.18628906 181.72286377 127.17726563 182.90275879 127.16796875 184.1184082 C126.69668414 207.96246373 116.45496359 228.46197082 99.3125 244.953125 C78.55829987 263.45419331 56.25559274 265.85142325 29.64730155 265.76802647 C25.991388 265.7609615 22.33555969 265.77708715 18.67967224 265.7900238 C11.53795144 265.81154933 4.39639069 265.81156636 -2.74535183 265.80339826 C-8.55670264 265.79707079 -14.36800716 265.79826032 -20.17935753 265.80467033 C-21.42511581 265.80602282 -21.42511581 265.80602282 -22.69604092 265.80740262 C-24.3838015 265.80925403 -26.07156206 265.8111166 -27.75932261 265.81299018 C-43.54897427 265.8295292 -59.33853631 265.8208832 -75.12818255 265.8040046 C-89.53476215 265.78931587 -103.94113301 265.80393131 -118.34768573 265.83277477 C-133.18423951 265.86225509 -148.02069725 265.87311567 -162.857279 265.86359257 C-164.53937604 265.86257014 -166.2214731 265.86157553 -167.90357018 265.86060905 C-168.73093814 265.86013266 -169.55830611 265.85965627 -170.41074583 265.85916545 C-176.20493201 265.85701244 -181.99902611 265.86674584 -187.79319191 265.88138008 C-194.86926962 265.89900458 -201.94508169 265.8986427 -209.02114943 265.87602843 C-212.62267591 265.86497627 -216.22373618 265.86151454 -219.82524109 265.88032913 C-238.37696734 265.97016609 -256.72828526 265.54851567 -273.2421875 255.98046875 C-273.9323999 255.59769775 -274.6226123 255.21492676 -275.33374023 254.82055664 C-281.53061063 251.27917791 -286.99888585 247.07245281 -292.2421875 242.23046875 C-292.94472656 241.60785156 -293.64726562 240.98523438 -294.37109375 240.34375 C-309.24833435 226.4563845 -320.1744132 204.75964071 -321.41918945 184.32470703 C-321.70118892 170.4089882 -321.94010273 157.46446525 -317.2421875 144.23046875 C-316.86835938 143.16054688 -316.49453125 142.090625 -316.109375 140.98828125 C-311.64377026 129.36587952 -304.78406876 120.17251021 -296.2421875 111.23046875 C-295.70207031 110.61558594 -295.16195312 110.00070313 -294.60546875 109.3671875 C-291.05930741 105.4815951 -287.00475273 102.53936532 -282.6171875 99.66796875 C-282.01551758 99.27391846 -281.41384766 98.87986816 -280.79394531 98.47387695 C-276.75272551 95.92966274 -272.84984926 94.38100747 -268.3046875 92.85546875 C-263.92140724 90.97464304 -261.98007392 89.28414393 -260.12109375 84.98828125 C-258.88293604 81.65508629 -257.82687057 78.27543744 -256.77734375 74.87890625 C-254.98538385 69.12026667 -252.11140426 64.81777159 -248.2421875 60.23046875 C-247.38753906 59.10318359 -247.38753906 59.10318359 -246.515625 57.953125 C-237.04824848 46.16926273 -223.06886634 39.2939756 -208.2421875 37.23046875 C-196.74664479 36.4355642 -186.08486914 38.46905581 -175.2421875 42.23046875 C-174.51515625 40.88855469 -174.51515625 40.88855469 -173.7734375 39.51953125 C-169.53528681 31.82312651 -165.02740557 24.8862244 -159.2421875 18.23046875 C-158.21158203 17.00070313 -158.21158203 17.00070313 -157.16015625 15.74609375 C-117.82379929 -29.89825559 -47.67787517 -35.93215956 0 0 Z M-133.2421875 16.23046875 C-134.05300781 16.90851563 -134.86382812 17.5865625 -135.69921875 18.28515625 C-150.30461513 30.89380873 -159.70083809 46.69313463 -167.2421875 64.23046875 C-172.71808722 62.54362038 -177.70992207 60.19377321 -182.8515625 57.70898438 C-192.58583001 53.06845806 -204.75465855 52.32628051 -215.1171875 55.73046875 C-227.9330233 61.3118722 -236.38782042 70.480875 -242.1171875 83.10546875 C-244.54168285 89.32589117 -245.52755925 95.61749089 -246.2421875 102.23046875 C-246.83902344 102.34261719 -247.43585938 102.45476562 -248.05078125 102.5703125 C-263.09152043 105.98967817 -275.77340491 114.1113527 -286.2421875 125.23046875 C-286.98984375 126.02066406 -287.7375 126.81085938 -288.5078125 127.625 C-301.83526828 142.96174778 -305.4122145 161.85325768 -304.44482422 181.62451172 C-303.193535 197.71639256 -295.00422296 213.43404543 -284.2421875 225.23046875 C-283.72527344 225.83890625 -283.20835937 226.44734375 -282.67578125 227.07421875 C-269.83019466 241.2397779 -250.817054 247.85829615 -232.2421875 249.23046875 C-228.42401301 249.36234438 -224.61009621 249.36997294 -220.78990173 249.36418152 C-219.1228626 249.36757985 -219.1228626 249.36757985 -217.4221459 249.37104684 C-213.72014056 249.37734695 -210.0181722 249.37656004 -206.31616211 249.37573242 C-203.65264755 249.37872645 -200.98913583 249.3821016 -198.32562256 249.38591003 C-191.85356169 249.39418976 -185.38150993 249.39696368 -178.90944421 249.39752241 C-173.64285552 249.39799895 -168.37626982 249.40006059 -163.10968208 249.40322304 C-148.14773307 249.41202319 -133.1857912 249.41664355 -118.22383957 249.41589256 C-117.01584538 249.41583263 -117.01584538 249.41583263 -115.78344727 249.41577148 C-114.97712373 249.4157306 -114.17080019 249.41568972 -113.3400426 249.4156476 C-100.28653383 249.41524157 -87.23305397 249.42480207 -74.17955356 249.43890985 C-60.74669543 249.45331195 -47.31385136 249.4601779 -33.88098532 249.45931607 C-26.35145538 249.45898537 -18.82195573 249.46167643 -11.29243279 249.47249413 C-4.87901708 249.48164986 1.53435461 249.48373319 7.94777406 249.4769847 C11.21268941 249.47374455 14.47750408 249.47468187 17.74241447 249.48233795 C44.76021338 249.54155315 69.58574703 248.974477 90.03515625 229.01171875 C104.38205318 214.35606508 110.28363792 197.61019751 110.10742188 177.3046875 C109.66916631 159.98767033 103.00315636 144.60608222 90.7578125 132.23046875 C72.97292649 115.87716508 53.13692588 112.58961996 29.7578125 113.23046875 C29.77352295 112.44099854 29.7892334 111.65152832 29.80541992 110.83813477 C30.34323361 79.66536393 26.76503223 52.79137233 5.7578125 28.23046875 C4.9946875 27.21984375 4.2315625 26.20921875 3.4453125 25.16796875 C-11.85183421 8.44783165 -33.06518187 -2.15056819 -55.2421875 -5.76953125 C-57.19125 -6.10984375 -57.19125 -6.10984375 -59.1796875 -6.45703125 C-85.81876608 -9.10965136 -112.81034765 -1.30349794 -133.2421875 16.23046875 Z " fill="#000000" transform="translate(353.2421875,134.76953125)"/>
</svg>
